<?xml version="1.0" encoding="utf-8"?>
<!-- Generator: Adobe Illustrator 22.0.0, SVG Export Plug-In . SVG Version: 6.00 Build 0)  -->
<svg version="1.1" id="Layer_1" xmlns="http://www.w3.org/2000/svg" xmlns:xlink="http://www.w3.org/1999/xlink" x="0px" y="0px"
	 viewBox="0 0 2500 1436" style="enable-background:new 0 0 2500 1436;" xml:space="preserve">
<style type="text/css">
	.st0{fill:#FFFFFF;}
	.st1{display:none;fill:#61526C;}
	.st2{fill:#BC4A31;}
	.st3{fill:#61526C;}
	.st4{fill:#8C8694;}
	.st5{font-family:'MyriadPro-Regular';}
	.st6{font-size:434.5498px;}
	.st7{font-size:424.3809px;}
</style>
<g>
	<path class="st0" d="M0,0h2500v1418H0V0z"/>
	<path class="st1" d="M1196.3,895.9c1.9,5.7,0,13.4-5.7,19.2c-9.6,9.6-26.8,21-51.7,30.6l3.8-9.6l7.7-21
		c11.5-21.1,24.9-30.7,38.3-28.8l5.7,1.9C1196.3,890.2,1198.3,894,1196.3,895.9L1196.3,895.9z M1240.4,886.3
		c0-11.5-3.8-21.1-11.5-26.8c-7.7-5.8-17.2-7.7-28.8-9.6c-13.4,1.9-24.9,5.7-34.5,11.5c-11.5,9.6-21.1,21.1-26.8,34.5
		c3.8-17.2,5.7-36.4,7.7-59.4l3.8-55.6h-63.3l-3.8,30.6h24.9l-11.5,145.7c0,19.2-1.9,38.4-5.7,57.5h38.4l9.6-61.3l46,61.3h46
		l1.9-32.6h-17.2l-30.7-34.5c21.1-9.6,36.4-19.2,46-32.6C1236.6,905.5,1240.4,895.9,1240.4,886.3z M910.8,884.5l-5.8,72.8
		c0,17.2-1.9,36.5-5.7,57.5h40.2c5.8-40.3,13.4-70.9,23-92l5.7-7.6c9.6-17.2,21.1-26.9,30.7-28.8c7.7,1.9,11.5,7.7,9.6,19.2v9.6
		c0,5.7-1.9,13.4-3.8,23l-7.7,76.7h59.4l3.8-32.6h-19.2l7.7-53.7v-13.4l1.9-19.2c-1.9-28.7-15.4-44.1-40.2-46
		c-28.8,1.9-51.7,21-67.1,61.3l9.6-57.5h-59.4l-3.8,30.7L910.8,884.5L910.8,884.5z M801.5,853.8l-3.8,30.7h23l-13.4,130.3h61.3
		v-32.6h-19.1l13.4-128.4L801.5,853.8L801.5,853.8z M615.6,915.1l-15.3,99.6h61.4l3.8-32.6h-19.2l9.6-67.1v-19.2
		c0-28.7-11.5-44.1-36.4-46c-32.6,1.9-53.7,21-67.1,61.3h-3.8c5.7-17.2,7.7-36.4,9.6-57.5h-57.5l-3.8,30.7h21.1l-11.5,130.3h40.2
		c3.8-40.3,11.5-70.9,23-92l3.8-7.6c11.5-17.2,23-26.9,32.6-28.8c5.7,1.9,9.6,7.7,9.6,19.2L615.6,915.1L615.6,915.1L615.6,915.1z
		 M843.7,775.2c-7.6,0-13.4,1.9-19.2,7.7c-5.7,3.8-7.7,9.6-7.7,19.2c0,5.7,1.9,11.5,7.7,15.3l19.2,5.7c6.8,0.2,13.6-1.8,19.2-5.7
		c5.7-5.7,7.6-11.5,7.6-19.2C870.5,782.8,860.9,775.2,843.7,775.2L843.7,775.2z M389.4,915.1c7.7-21.1,21.1-32.6,38.3-34.5
		c9.6,1.9,13.4,5.7,15.3,15.3c-1.9,7.7-5.7,13.4-13.4,19.2c-9.6,5.7-23,9.6-40.2,11.5L389.4,915.1L389.4,915.1L389.4,915.1z
		 M347.3,947.7c0,44.1,23,69,70.9,70.9c21-1.9,36.4-7.7,47.9-13.4l7.6-36.4c-17.2,9.6-34.5,13.4-49.8,13.4c-23,0-34.5-9.6-34.5-28.8
		c44.1-3.9,72.8-17.2,86.2-38.3c5.7-5.8,7.7-15.4,9.6-24.9c-1.9-24.9-19.2-38.4-51.7-40.3c-21.1,1.9-38.3,7.7-53.7,19.2
		c-13.4,9.6-23,24.9-28.8,46L347.3,947.7z M755.5,817.3l-38.3,1.9l-3.8,34.5h-21l-3.8,30.7h21.1l-5.8,88.2
		c-1.9,28.7,11.5,42.2,40.2,42.2l40.3-5.7l1.9-34.5l-30.7,7.7c-9.6,0-13.4-5.7-11.5-17.2l1.9-32.6v-17.2l3.8-30.7h42.2l3.8-30.7
		h-42.2L755.5,817.3L755.5,817.3z M366.4,832.7l3.8-30.7h-80.5l-3.8,30.7h24.9l-47.9,115l-9.6,30.7l-5.8-30.7l-26.8-115h15.4
		L238,802h-74.7l-3.8,30.7h15.3l9.6,32.6l-49.8,116.9l-5.8-40.2l-7.7-26.8l-19.2-82.4h15.4l3.8-30.7H40.6l-3.8,30.7h19.2l51.7,182.1
		h46l42.2-99.6h3.8l23,99.6h49.8l78.6-182.1H366.4z M2325.2,915.1c3.8,15.3,19.2,26.8,44.1,32.6l24.9,5.7
		c7.7,3.8,11.5,7.7,11.5,11.5c1.9,13.4-7.7,21.1-28.8,19.2l-23-1.9l1.9-19.2h-36.4l-3.9,46l61.3,9.6c21.1-1.9,38.3-7.7,51.7-17.3
		c11.5-9.6,17.2-23,19.2-38.3c-1.9-17.2-7.7-28.8-19.2-34.5l-36.4-13.4c-19.2-3.9-28.8-9.6-28.8-15.4c1.9-11.5,9.6-17.2,26.8-19.2
		c9.6,1.9,15.4,3.9,17.2,5.7v15.3h36.5v-42.2l-51.7-9.6c-21.1,1.9-38.4,5.7-49.9,15.3c-13.4,9.6-19.2,21.1-19.2,36.4L2325.2,915.1
		L2325.2,915.1z M2173.8,915.1v-19.2c1.9-28.7-11.5-44.1-36.4-46c-30.7,1.9-53.7,21-67.1,61.3c3.9-21.1,5.7-40.3,5.7-57.5h-57.5
		l-1.9,30.7h19.2l-5.7,72.8l-5.8,57.5h40.3c5.7-40.3,13.4-70.9,24.9-92l1.9-7.6c13.4-17.2,24.9-26.9,34.5-28.8
		c5.7,1.9,7.6,7.7,7.6,19.2v9.6l-15.3,99.6h61.3l3.8-32.6h-19.2l9.6-53.7L2173.8,915.1L2173.8,915.1L2173.8,915.1z M1805.8,853.8
		h-43.6l-2.7,30.7h16.3l-2.7,30.7c-2.7,19.2-6.8,34.4-12.3,47.9c-5.5,11.5-10.9,17.2-16.3,19.2c-4.1-1.9-5.5-5.7-6.8-11.5
		c-1.4-5.7-2.7-17.2-1.4-34.5c-1.3-5.7-1.3-13.4,0-21l1.4-61.4h-42.2l-2.7,30.7h15l-1.3,30.7v23c-1.4,28.7,1.3,49.8,8.2,63.2
		c4.1,9.6,12.3,15.4,23.2,17.3c31.3-1.9,53.1-36.4,62.7-103.5L1805.8,853.8L1805.8,853.8z M2235.2,819.3l-3.8,34.4h-21.1l-3.8,30.7
		h23l-3.8,57.5c-1.9,13.4-3.8,24.9-1.9,30.6c-1.9,28.7,11.5,42.2,42.2,42.2l36.4-5.7l1.9-34.5l-26.8,7.7c-9.6,0-15.3-5.7-15.3-17.2
		c0-5.7,1.9-17.2,3.9-32.6l1.9-47.9h42.2l3.8-30.7h-42.2l1.9-36.4L2235.2,819.3L2235.2,819.3z M2003.2,890.2
		c0-24.9-17.2-38.4-51.7-40.3c-21.1,1.9-38.3,7.7-51.7,19.2c-13.4,9.6-24.9,24.9-30.6,46l-1.9,32.6c0,44.1,23,69,69,70.9
		c21.1-1.9,38.3-7.7,47.9-13.4l7.7-36.4c-17.2,9.6-32.6,13.4-49.9,13.4c-21.1,0-32.6-9.6-32.6-28.8c44.1-3.9,72.8-17.2,84.3-38.3
		C1999.4,909.4,2003.2,899.8,2003.2,890.2L2003.2,890.2z M1909.3,926.6v-11.5c5.7-21.1,19.2-32.6,36.4-34.5
		c9.6,1.9,15.4,5.7,15.4,15.3c0,7.7-3.9,13.4-11.5,19.2C1940,920.8,1926.6,924.7,1909.3,926.6z M1522.2,832.7h19.2l-13.4,149.5
		h-15.3l-1.9,32.6h151.4l7.7-61.3h-38.4l-1.9,28.8h-59.4l7.7-65.2h53.7l3.9-1.9v-28.8h-57.5l5.8-53.6h57.5v26.8h30.7l5.8-57.5H1526
		L1522.2,832.7z M968.3,1076.1v90.1h67.1v-17.2h-42.1v-19.2h36.4v-17.2h-36.4v-19.2h40.2v-17.2H968.3L968.3,1076.1z M220.8,1093.3
		c11.5-1.9,17.2,1.9,17.2,9.6v1.9c0,3.9-1.9,5.7-5.7,7.7L220.8,1093.3L220.8,1093.3z M213.1,1116.4h7.7v-23h-7.7V1116.4z
		 M2298.4,1093.3h5.7c13.4-1.9,19.2,1.9,19.2,9.6v1.9l-7.7,7.7l-11.5,3.9h-5.7L2298.4,1093.3L2298.4,1093.3z M2304.2,1129.8l9.6,5.7
		l5.7,17.2l5.7,13.4h24.9l-13.4-38.4l-7.7-5.7c9.6-1.9,15.4-7.7,17.3-17.2v-5.7c0-15.4-9.6-23-30.7-23h-42.1v90.1h24.9v-36.4H2304.2
		L2304.2,1129.8z M745.9,1076.1l-21.1,72.8l-11.5-44.1l-9.6-28.7h-23l28.8,90.1h30.7l30.7-90.1H745.9z M807.3,1076.1v90.1h24.9
		v-90.1H807.3z M864.7,1093.3h24.9v72.9h24.9v-72.9h21.1v-17.2h-70.9L864.7,1093.3L864.7,1093.3z M458.4,1129.8h-21.1l7.7-24.9
		l3.8-11.5L458.4,1129.8z M464.2,1076.1h-30.7l-36.4,90.1h26.8l5.7-17.2h34.5l5.8,17.2h26.8l-23-61.3L464.2,1076.1L464.2,1076.1z
		 M128.8,1093.3c9.6-1.9,17.3,0,24.9,5.8l1.9-21.1l-26.8-1.9c-26.8-1.9-44.1,7.7-51.8,28.7v17.2c0,15.4,5.8,26.8,17.3,36.4
		c9.6,5.7,21.1,9.6,34.5,11.5l26.8-5.7l-1.9-19.2l-21.1,7.7c-21.1-1.9-30.7-13.4-30.7-30.7l1.9-17.2
		C109.6,1095.3,119.2,1091.4,128.8,1093.3L128.8,1093.3z M515.9,1093.3H537v72.9h23v-72.9h24.9v-17.2h-69V1093.3z M619.4,1076.1
		v90.1h24.9v-90.1H619.4z M303.2,1076.1v90.1h63.3v-17.2h-40.2v-19.2h36.4v-17.2h-36.4v-19.2h40.2v-17.2H303.2z M2083.7,1112.5H2055
		v-36.4h-24.9v90.1h24.9v-38.4h28.8v38.4h23v-90.1h-23V1112.5z M1075.6,1076.1v90.1h24.9v-90.1H1075.6z M1765.6,1076.1v90.1h65.1
		v-17.2h-40.2v-19.2h36.4v-17.2h-36.4v-19.2h40.2v-17.2H1765.6z M2200.7,1129.8h-21.1l5.7-24.9l5.8-11.5L2200.7,1129.8z
		 M2206.4,1076.1h-30.7l-36.4,90.1h28.8l5.7-17.2h32.6l7.7,17.2h26.8l-24.9-61.3L2206.4,1076.1L2206.4,1076.1z M2377,1076.1v17.2
		h21.1v72.9h24.9v-72.9h21.1v-17.2H2377z M1863.3,1093.3h21.1v72.9h24.9v-72.9h23v-17.2h-69L1863.3,1093.3L1863.3,1093.3z
		 M1646.8,1076.1v90.1h24.9v-38.4h30.6v38.4h24.9v-90.1h-24.9v36.4h-30.6v-36.4H1646.8L1646.8,1076.1z M1133.1,1093.3h23v72.9h24.9
		v-72.9h23v-17.2h-70.9V1093.3z M1324.8,1076.1h-24.9v57.5c0,23,13.4,34.5,40.2,36.4c26.8-1.9,40.3-13.4,40.3-36.4v-57.5h-24.9v51.7
		c0,15.4-5.7,23-15.4,24.9c-11.5-1.9-17.2-9.6-15.3-24.9L1324.8,1076.1L1324.8,1076.1L1324.8,1076.1z M1422.5,1076.1v90.1h24.9
		v-90.1H1422.5z M1480,1093.3h24.9v72.9h23v-72.9h21.1v-17.2h-69V1093.3z"/>
	<path class="st2" d="M2463.2,1041.6H67.4v13.4h2395.8L2463.2,1041.6L2463.2,1041.6z"/>
	<path class="st3" d="M1581.6,261.5l1.9-11.5l19.2,3.8l-7.7,3.8c-5.8,0-7.7,1.9-5.8,7.6c3.9,3.8,7.7,3.8,11.5,1.9l11.5-7.7l-1.9-5.7
		l9.6,1.9l5.7,5.8l-13.4,5.7l1.9,3.8l-1.9,3.8l-3.8,1.9l-3.9-1.9l-7.7,15.3l-3.8-9.6l-7.7-9.6c-3.8,3.8-3.8,9.6-1.9,17.2
		c1.9,7.6,0,11.5-1.9,13.4l-15.4-5.8c-5.7-2-9.5-7.4-9.6-13.4c0-3.8,3.8-5.7,9.6-5.7c5.8-1.9,7.7-3.8,5.8-9.6l1.9,1.9L1581.6,261.5
		L1581.6,261.5z"/>
	<path class="st3" d="M1579.7,265.3c5.8-9.6,11.5-13.4,17.2-9.6l-7.7,1.9l-5.7,7.6c15.4,3.8,19.2,11.5,13.4,23
		c-1.9-1.9-3.8-5.8-1.9-13.4c0-3.8-3.8-5.8-9.6-5.8c-7.7,9.6-9.6,17.2-3.8,26.8l1.9,1.9l-15.3-3.8c-5.8-1.9-9.6-5.7-9.6-11.5
		C1566.3,282.6,1573.9,276.9,1579.7,265.3z"/>
	<path class="st4" d="M1397.6,194.4l-3.8-5.7l5.7-3.8c-5.7-5.7-9.6-3.8-13.4,1.9c-3.9,9.6-7.7,13.4-13.4,13.4l-3.8-3.8
		c-5.7,1.9-9.6,9.6-11.5,23l-3.9,7.7l-13.4-1.9l-3.8,5.7c-1.9,1.9,0,3.8,1.9,5.8l-7.7,7.7l-3.8,9.6l-9.6,1.9c-3.9,0-5.7-1.9-7.7-5.7
		c1.9,7.7-1.9,13.4-9.6,15.3l3.8,1.9c-5.7,9.6-13.4,17.3-21.1,19.2c5.7,1.9,5.7,3.8,0,5.8c-1.9,1.9-1.9,3.8,0,5.7l-11.5,11.5
		c-1.9-3.8-5.7-5.8-11.5-3.8c-5.8,3.8-5.8,5.7,0,7.6c5.7,1.9,9.6,5.8,9.6,7.7h-24.9c-1.9,3.8-1.9,5.7,0,3.8c3.8-1.9,5.8,0,5.8,1.9
		l-13.4,15.3c-1.9,7.7-5.8,15.3-11.5,24.9s-9.6,17.2-11.5,23l3.8,1.9l-3.8,3.8l5.8,5.8l-1.9,1.9c-3.8,3.8-7.7,3.8-11.5-1.9l3.8,19.2
		h-3.8l1.9,7.7l1.9-1.9l9.6-1.9l7.6,5.7l-7.6,7.7l-3.8-5.7c-1.9,3.8-1.9,7.6,1.9,13.4c1.9,1.9,1.9,5.7-3.8,7.7v13.4l5.8,11.5
		l11.5,3.8c3.8,0,5.8-1.9,5.8-5.7c5.7,1.9,5.7,5.7,3.8,9.6l-5.7,13.4l5.7-3.8h5.8l-11.5,13.4l11.5-3.8v3.8c-1.9,3.8-3.8,5.8-7.7,7.7
		c-3.8,1.9-7.7,0-11.5-1.9l3.8,21h-3.8v9.6c1.9-3.8,5.8-5.8,11.5-3.8l11.5,3.8c-3.8,9.6-7.7,11.5-11.5,9.6l5.7,9.6l-3.8,9.6
		l-7.6,7.7c-1.9,5.7,0,9.6,1.9,13.4h-3.8l9.6,7.7l7.7,5.7c5.7,5.7,11.5,3.8,17.3-3.8l1.9,1.9l17.2-24.9l-5.8-1.9V572l3.9-3.8
		l5.7-3.8c-1.9-5.7-1.9-15.3,3.8-24.9l11.5-24.9l-9.6,5.7l-3.8-5.7l5.7-5.8h7.7l-7.7-7.6c5.7,1.9,9.5,0,13.4-1.9
		c3.8-3.8,5.8-9.6,3.8-15.3c9.6-1.9,15.4-7.7,17.2-19.2l1.9-13.4l3.8-9.6c1.9-13.4,9.6-21.1,24.9-23c1.9-1.9,0-5.8-3.8-9.6
		c-1.9-1.9-1.9-5.7,0-7.6c0,1.9,1.9,1.9,5.7,1.9c-5.7-5.7-5.7-13.4,1.9-23l9.5-11.5c3.9-3.8,5.8-7.7,3.9-11.5l7.7,9.6
		c1.9-5.8,1.9-9.6,0-11.5l-7.7-9.6l21.1-5.7l-9.6-11.5l5.7-7.7v-5.7c5.7,1.9,7.7,0,9.6-5.7c1.9-5.8,3.8-9.6,5.8-9.6
		c5.7,3.8,5.7,7.7,1.9,11.5c-5.7,5.7-5.7,11.5-3.9,15.3l13.4-1.9l-1.9-3.8l5.7-19.2c1.9-5.8,5.7-9.6,13.4-9.6l-3.8-3.8l-7.7,7.6
		c-5.8-1.9-7.7-3.8-9.6-5.7l9.6-15.3c3.8-5.8,3.8-11.5,0-17.2l-11.5,17.2c-5.7,7.6-5.7,13.4-3.9,17.3h-17.2
		c-5.7,3.8-7.7,7.6-7.7,13.4l-3.8,13.4l-5.7-3.8v3.8c1.9,5.7,0,9.6-7.7,11.5l-15.3-1.9c1.9,5.7,1.9,9.6-3.8,11.5l-3.9-1.9l-1.9,19.2
		l-7.7-1.9c-1.9,7.7-5.7,9.6-13.4,7.7l-1.9,5.7c0,1.9,1.9,3.8,3.9,3.8l-7.7,7.7l3.8,1.9l-15.3,17.3l-3.9-3.8h-15.3l7.7,11.5
		l11.5,5.7c0,1.9-1.9,1.9-3.9,1.9h-5.7l-13.4-1.9c-5.8-1.9-11.5,0-13.4,5.8c5.8-3.8,9.6-3.8,11.5,1.9c0,1.9-1.9,1.9-5.7,1.9v5.8
		c-9.6,1.9-15.4,7.7-17.2,17.2c-1.9,13.4-5.8,23-9.6,24.9l-1.9-21.1l3.8-3.8l3.8-1.9c-1.9-5.7-1.9-11.5,1.9-19.2
		c5.8-9.6,9.6-15.3,9.6-17.2l-9.6-3.8c3.8,0,5.8-1.9,7.7-7.7c1.9-3.8,3.8-5.7,9.6-5.7c-3.9-5.7-1.9-11.5,7.7-17.2
		c9.6-5.7,11.5-11.5,7.7-17.2l5.7-19.2c5.7-9.6,11.5-13.4,19.2-11.5l-3.9-7.7c-1.9-1.9-1.9-3.8,1.9-5.7l3.9,3.8
		c-5.7-5.7-5.7-13.4,0-21.1l11.5-17.2l5.7,3.8c1.9,1.9,1.9,0,1.9-5.7l-7.7-7.7l17.2-5.7l-7.7-7.7c0-5.8,1.9-9.6,7.7-11.5
		c5.7-3.8,7.7-7.7,9.6-13.4l3.9,5.7l-1.9,3.8c-5.7,5.8-7.7,11.5-5.7,15.4l11.5-1.9l1.9-9.6c-1.9-11.5,3.8-17.2,13.4-17.2l-17.2-1.9
		l9.6-19.2l19.2,7.7l-3.8,5.7l3.8,5.8l-3.8,1.9v3.8c3.8,1.9,5.7,0,7.7-3.8c0-5.7,1.9-9.6,3.8-9.6c-3.4-1.5-6.2-4.2-7.7-7.7
		c-1.9-3.6-1.9-7.9,0-11.5h3.9l1.9,7.6l7.7-7.6l5.7-7.7c1.9-1.9,1.9-1.9-1.9-3.8L1397.6,194.4L1397.6,194.4z"/>
	<path class="st3" d="M1549,278.8c0,5.8-1.9,13.4-7.7,21.1c-5.7,9.6-9.6,15.3-9.6,21.1c-1.9-6.2-1.9-12.9,0-19.2l5.7-15.4
		C1537.5,280.7,1541.3,278.8,1549,278.8z M1499.2,326.7c5.7,3.8,13.4,5.8,26.8,3.8l30.7-1.9l1.9-7.7l3.8,7.7l-15.3,1.9
		c-5.8,0-9.6,3.8-7.7,9.6c1.9,3.8,1.9,9.6,0,15.3l-7.7,15.4l-11.5,5.7l1.9-9.6v-11.5l7.7-1.9l3.8-7.7l-7.7-13.4
		c-5.7,1.9-11.5,3.8-13.4,9.6l-3.8,15.3l-7.7-1.9l3.9-3.8l1.9-3.8l-5.8-5.7c0,1.9-1.9,3.8-3.8,3.8h-5.7l-1.9-3.8
		c0-1.9,1.9-3.8,7.7-5.7C1501.1,334.4,1501.1,330.5,1499.2,326.7L1499.2,326.7z"/>
	<path class="st2" d="M1748.3,307.5c5.7-9.6,13.4-11.5,24.9-5.7l-1.9,7.7l-11.5-1.9c-3.8,1.9-5.8,3.8-5.8,9.6l-3.8,3.8l17.2,3.8h5.8
		l3.8-7.7l7.7-1.9l7.7-5.7l-7.7-1.9v-5.7l11.5,5.7l7.7,9.6l-17.2,1.9l1.9,7.6c1.9,1.9,0,3.8-3.9,5.8c-1.9,1.9-3.8,0-5.7-1.9
		l-5.7-5.7c-1.9,1.9-3.9,5.7-1.9,11.5c1.9,3.8,0,7.7-5.7,9.6l3.8,3.8l-3.8,1.9l-5.7-7.7v-11.5l-9.6-3.8c-5.7,5.7-5.7,11.5-3.8,21.1
		v19.2l-23-9.6c-9.6-1.9-13.4-7.7-11.5-17.2l5.7-1.9v-3.8c7.7,0,13.4-1.9,17.2-7.7l-1.9-1.9l9.6-5.7L1748.3,307.5L1748.3,307.5z"/>
	<path class="st2" d="M1750.2,324.8l9.6,1.9h3.9c3.8,1.9,5.7,3.8,7.6,9.6l-5.7,5.7l-1.9,3.8l-1.9-3.8c-1.9-5.7,0-7.7,3.9-9.6
		l-1.9-5.8h-1.9L1750.2,324.8l-5.7,3.8l-3.8,17.2l5.8,17.2l-19.2-3.8c-7.7-1.9-11.5-7.7-13.4-13.4c3.8,0,5.7-1.9,7.7-3.8v-3.8
		c5.7,1.9,9.6,1.9,13.4-3.8l9.6-9.6L1750.2,324.8L1750.2,324.8L1750.2,324.8z M1702.3,338.2l-5.7,19.2c-1.9,5.7-7.7,9.6-13.4,13.4
		c3.9,3.8,3.9,7.6,0,13.4l-3.8,11.5h-1.9l1.9-13.4c1.9-3.8,0-7.7-5.7-9.6l1.9-1.9l5.8-9.6l-1.9-1.9h5.7c1.9,0,3.9,0,5.8-1.9
		l-5.8-11.5l7.7-5.8L1702.3,338.2L1702.3,338.2z"/>
	<path class="st3" d="M1353.5,474.3l13.4-1.9l3.8,7.7l26.8-19.2l-3.8-11.5c3.8,0,7.7-3.8,13.4-11.5c0-3.8-1.9-5.7-3.8-3.8
		c-3.9,1.9-5.8,0-5.8-1.9l15.4-3.8c5.7-1.9,7.7-5.8,5.7-9.6l7.7,1.9c1.9,0,5.7-1.9,7.7-5.7c-5.7-1.9-5.7-3.8,0-5.8
		c1.9-1.9,1.9-3.8,0-5.7h-3.9v-11.5l5.7,9.6c3.8-1.9,5.7-7.7,7.7-13.4c1.9-5.8,1.9-9.6,0-15.4c1.9,5.7,5.7,7.7,11.5,7.7h19.2
		c3.9-1.9,3.9-5.8,1.9-11.5c-1.9-3.8,0-5.7,1.9-5.7l3.8,3.8h5.7l1.9-15.4l7.7,3.8l-5.7,3.8l9.6,9.6l-7.7,1.9l-3.8,7.6
		c-1.9,3.8,0,5.8,5.7,7.7c5.7,1.9,7.7,3.8,7.7,5.7c-3.9-1.9-9.6-1.9-15.4,3.8h-13.4v5.8l1.9,5.7l9.6,5.7c1.9,3.8,1.9,7.7-1.9,13.4
		l-9.6-15.3l-11.5,28.7c0-7.6-1.9-11.5-3.8-13.4c-5.7,0-7.7,3.8-5.7,9.6c5.7,5.7,5.7,11.5,3.8,13.4c-5.7,1.9-11.5,5.7-13.4,11.5
		c-1.9,5.6-1.9,11.7,0,17.2l11.5,5.8l-11.5-3.8l-3.8,5.7v5.7l7.7,7.7l1.9,9.6H1432c-9.6,3.8-15.3,5.8-19.2,5.8
		c3.9,1.9,5.7,7.6,5.7,15.3l-7.7-1.9l-7.7-5.8l-1.9,7.7c0-1.9-1.9-3.8-5.7-3.8l-1.9,7.7l-7.7-11.5c-3.9-5.7-7.7-9.6-13.4-9.6
		l-1.9,5.7l1.9,5.8c-1.9,13.4-1.9,23,0,30.7c-3.8,11.5-11.5,17.2-21.1,19.2l11.5,7.7l9.6,7.7c7.7,5.7,13.4,1.9,17.2-7.7l-3.8-7.7
		l-13.4,1.9c0-1.9,3.9-5.8,11.5-7.7c5.7-1.9,9.6-7.7,9.6-13.4l-7.7-3.8l1.9-1.9h13.4v3.8l-3.9,1.9c0,3.8,1.9,5.7,5.8,3.8
		c1.9,0,3.8,1.9,3.8,5.7l-7.7-1.9l-3.8,21.1l-15.3,17.2l-3.8-5.7c-3.9,1.9-5.8,5.7-3.9,9.6l3.9,9.6l3.8,3.8
		c-1.9,5.8-7.7,5.8-17.2,3.8c-5.7-1.9-9.6,1.9-11.5,9.6l5.7,3.8l1.9-1.9l-1.9,1.9l-7.7,5.8c-3.8,5.7-3.8,9.6,0,13.4l11.5-1.9
		l-3.8,13.4l-9.6,15.4c-9.6,13.4-9.6,26.8-3.8,36.4c-5.5,1.7-9.8,6-11.5,11.5l-1.9,17.2v15.3c-1.9,5.8-7.7,7.7-13.4,9.6l5.7,5.7
		l-5.7,1.9v-3.8l-3.9-3.8l-5.7,3.8l-3.9,9.6l-17.2-7.7l-15.4-11.5l7.7-3.8l-7.7-9.6l-1.9-13.4l9.6-9.6c0,5.7,0,7.7,1.9,7.7l9.6-3.8
		l-7.7-11.5l-7.7-7.7v-13.4l1.9,5.8c1.9,3.8,3.9,5.7,5.7,5.7c0-1.9,3.8-7.7,9.6-17.2c1.9-3.8,0-7.7-9.6-11.5h-13.4l-11.4,1.9
		l11.5-9.6c5.7-3.8,7.7-7.7,7.7-11.5c0,5.7,3.9,7.7,11.5,7.7l1.9-7.7l-19.2-7.7l-3.8,9.6l-11.5-17.2c5.7,5.8,11.5,7.7,17.3,3.8
		l13.4-11.5l1.9-5.8v-3.8l-5.7-5.7l-11.5,9.6l11.5-9.6c7.7-5.7,11.5-7.7,11.5-3.8c1.9-1.9,1.9-3.8,0-5.7l-3.8-7.7
		c9.6,7.7,19.2,13.4,28.7,15.4l1.9-9.6l5.7-5.7c-1.9-5.7-1.9-11.5,0-13.4l7.7-11.5l-11.5-9.6c5.8-3.8,7.7-9.6,5.8-19.2l-9.6-24.9
		c1.9,1.9,3.8,1.9,9.6-3.8c3.9-3.8,5.7-7.7,5.7-11.5h1.9l3.8-3.8l-1.9-5.8l-3.8-3.8l-7.7,1.9c-1.9-3.8,0-5.7,7.7-3.8l17.2,1.9
		c1.9,3.8,3.8,5.7,9.6,5.7l9.6-1.9c3.8-3.8,3.8-7.6-1.9-9.6c-5.7-3.8-9.6-7.7-7.7-11.5l-13.4-1.9
		C1345.8,480,1347.7,476.2,1353.5,474.3L1353.5,474.3z"/>
	<path class="st2" d="M1692.7,412.9c-3.8,1.9-5.7,3.8-7.7,9.6c0,5.8,1.9,9.6,5.8,13.4c-5.8,0-7.7,3.8-7.7,9.6l-1.9,15.3l-17.2,7.7
		c-1.9-3.8-1.9-9.6,0-15.3l1.9-13.4l7.7,1.9l5.7-5.7c1.9-9.6-3.9-17.3-13.4-26.9l-13.4,13.4l-3.9,19.2h-7.7c-1.9-1.9,0-3.8,1.9-9.6
		c1.9-1.9,0-3.8-3.9-5.8h-9.6l-7.7-3.8l7.7-9.6c5.7-3.8,7.7-7.7,7.7-13.4c5.8,9.6,15.4,11.5,30.7,7.7l15.3-1.9
		C1688.9,405.3,1690.8,407.2,1692.7,412.9z"/>
	<path class="st3" d="M1319,562.5c-9.6,0-13.4,5.7-11.5,15.3v11.5l-1.9,11.5l3.9,3.8l-28.7-1.9v5.7c-1.9-3.8-1.9-7.7,0-13.4
		l7.7-13.4l7.7,3.8l9.5-24.9l7.7-28.7l1.9,15.3L1319,562.5z"/>
	<path class="st2" d="M1326.7,821.2l19.2-11.5c5.7,5.8,5.7,9.6,1.9,15.4c-7.7,5.7-11.5,11.5-11.5,13.4c-3.8,0-9.6,1.9-15.3,5.7
		c-5.7,1.9-9.6,0-13.4-5.7l5.7,11.5l11.5,1.9l9.6-1.9l11.5,1.9l9.6,7.7l-9.6,9.6c-5.8-5.7-9.6-7.7-11.5-7.7l-7.7,7.7l-5.7,7.7h-11.5
		v11.5c1.9-3.8,7.7-5.7,13.4-5.7l15.4,1.9c9.6,0,15.3,5.7,21.1,15.3c-1.9,5.7-5.8,9.6-11.5,7.7l1.9,1.9v7.7l-5.7,7.7l-9.6-5.8v5.8
		l9.6,9.6l-3.9,1.9l11.5,15.4l-3.9,5.7l-7.7,1.9l-3.8-11.5l-3.8,7.7c-3.9,5.7-7.7,5.7-9.6,3.9l3.9,17.2c1.9,7.6,5.8,11.5,11.5,13.4
		l-11.5,7.7l19.2,13.4c7.7,5.7,15.3,9.6,23,9.6l3.8-13.4c1.9-5.8,5.7-7.7,11.5-5.8c1.9,1.9,3.8,7.7,3.8,13.4l7.7-5.7h-5.7
		c-1.9-5.7-1.9-11.5,3.9-17.2l15.3-11.5l-1.9-17.2c-3.8-7.7-5.7-13.4-3.8-17.2l13.4-15.4l3.8-15.3l-17.2-11.5l5.7-5.7l13.4,7.6
		l-3.8-9.6l9.6-9.6c5.7-1.9,9.6-9.6,9.6-21.1c-1.9-9.6,1.9-13.4,11.5-15.3v-3.8l1.9-3.9l-15.4,3.9c-5.7,0-11.5-3.9-13.4-9.6
		c5.8,0,7.7-1.9,7.7-7.7c0-5.8,3.9-7.7,9.6-5.8l-3.8-17.2l5.7-3.8l7.7-3.9c1.9,5.7,5.8,5.7,11.5,3.9l5.7-3.9l3.9-1.9l-3.9-1.9v-5.8
		l-1.9-7.7c-1.9-3.8-3.8-5.8-5.7-3.8c-1.9,0-1.9-1.9-1.9-5.7l21.1,1.9c-1.9-5.7,3.8-13.4,13.4-21.1l7.7-5.7c1.9-1.9,0-5.7-5.8-9.6
		c5.8-1.9,7.7-5.8,3.9-7.7c-3.9-1.9-3.9-5.7,1.9-7.7h3.9l5.7,1.9c1.9-5.8,0-7.7-3.8-5.8l-7.7-1.9c-1.9-5.8,0-9.6,3.8-11.5h-26.8
		l15.4,7.7c1.9,9.6,0,15.3-9.6,17.2c-11.5,1.9-17.2,5.7-17.2,9.6h5.7c1.9-3.8,5.7-3.8,11.5-1.9l9.6,9.6c-1.9,5.7-3.8,7.7-9.6,9.6
		l-11.5,7.7l-5.7-5.8l-3.8-5.7l-1.9,1.9l-11.5-7.7c-5.7-1.9-9.6-5.7-9.6-11.5l3.8-5.7c5.7,1.9,11.5,1.9,15.4-3.8l7.7-13.4v-28.8
		l-1.9-28.7c5.7-5.8,11.5-1.9,19.2,7.7c1.9-3.8,5.8-5.7,11.5-5.7c3.9-1.9,5.7,0,5.7,1.9l1.9,7.6l-9.6,3.8h-7.7
		c0,7.7,1.9,11.5,5.7,13.4c1.9,1.9,3.8,0,1.9-3.8c-1.9-5.7,0-7.7,1.9-7.7c5.7-1.9,9.6,0,11.5,3.8V664l11.5,9.6
		c3.8,5.7,7.7,5.7,11.5,1.9l-5.7-21.1l9.6-1.9c0,0-1.9-1.9-7.7-5.7c7.7-1.9,13.4-7.7,17.2-17.2c5.7,0,9.6,1.9,11.5,5.7l-11.5,15.3
		c1.9,1.9,3.8,1.9,9.6-3.8c7.7-5.7,13.4-5.7,15.4,0c1.9-5.7,0-9.6-1.9-11.5l-9.6-5.7l1.9-15.3l5.7-13.4c-1.9-5.7-1.9-13.4,3.9-23
		c5.7-9.6,5.7-19.2,3.8-24.9l7.7,5.8c-5.7-5.8-7.7-11.5-7.7-17.2c1.9-3.8,5.7-5.8,11.5-5.8l7.7,9.6c1.9-1.9,3.9-7.7,3.9-13.4
		c-1.9-5.8,0-11.5,5.7-13.4l9.6,5.8l5.8,11.5l3.9-17.2l-5.8,1.9c-5.7-1.9-9.6-11.5-9.6-26.8c5.7-1.9,11.5,1.9,15.4,7.7v-7.7
		l26.8-1.9l-23-13.4l3.8-13.4l9.6-5.7c-5.8-1.9-7.7-3.8-7.7-9.6l-3.9-11.5c-3.8,1.9-5.7,3.8-3.8,9.6c1.9,5.8,1.9,9.6-3.9,11.5
		l-5.7-3.8l-5.7-1.9v9.6l1.9,7.6c-1.8,3.6-5.5,5.8-9.6,5.8l-11.5,1.9l1.9,1.9v5.7l1.9,3.8c0,5.7-1.9,7.7-5.7,9.6
		c-1.9,1.9-3.9,0-5.8-1.9l-5.7-5.8c-5.7-5.7-5.7-7.6,0-9.6c5.7-1.9,9.6-1.9,9.6-3.8l-19.2-1.9v3.8l-3.8,13.4l-9.6,11.5l-5.8-13.4
		c-5.7,5.8-3.8,9.6,1.9,15.4l5.7,5.7l-1.9,7.7c-1.9,5.7-5.8,7.7-9.6,7.7l-7.7-1.9h-7.7c3.8,7.7,3.8,13.4-1.9,15.4l-17.2,1.9
		l5.7,11.5c1.9,5.7,3.8,7.7,9.6,7.7c-3.8,5.7-7.7,5.7-13.4,3.8c-5.7-1.9-9.6-1.9-15.3,3.8l3.8,3.8c3.9,7.7,1.9,13.4-3.8,15.3
		c-9.6,3.8-17.2,7.7-19.2,11.5l3.8,1.9c-3.8,5.7-7.7,7.7-11.5,7.7c-1.9,0-3.8-1.9-5.7-5.8c-5.7-7.6-13.4-9.6-19.2-3.8l-7.7,3.8
		l-1.9,7.7c3.8,1.9,5.7,3.8,5.7,1.9l5.7-5.7l15.4,15.4c5.7,5.7,9.6,13.4,11.5,19.2c-1.9,1.9-3.8,1.9-5.7,1.9h-5.7l-15.4-1.9
		c-5.7-1.9-5.7-1.9-3.8-3.8h-1.9c-5.7,3.8-11.5,1.9-17.2-5.7l-9.6,1.9l-9.6,7.7l13.4-3.8l7.7,5.8l1.9,7.6c-1.9,1.9-5.8,3.8-13.4,3.8
		l-3.8,15.3l-5.8,7.7v13.4c0,5.7,1.9,11.5,5.8,13.4l3.8,19.2c0,7.7-3.8,11.5-11.5,11.5l11.5,7.7c5.7,1.9,5.7,3.8,1.9,9.6
		c3.9,1.9,3.9,5.7-1.9,9.6l-11.5,1.9c1.9,1.9,3.8,5.8,3.8,11.5c0,7.7-1.9,11.5-3.8,9.6l-1.9,17.3c-5.8,1.9-13.4,0-23-5.7l-19.2-11.5
		l7.7,11.5c-1.9,3.9-3.9,3.9-7.7,0l-1.9-1.9v1.9L1326.7,821.2L1326.7,821.2z M1587.3,545.2l-1.9,7.6h3.8v-7.6H1587.3L1587.3,545.2z
		 M1474.2,614.2l5.7-9.6c3.8-5.7,9.6-5.7,17.2,3.8h9.6c3.8,1.9,5.7,5.7,3.8,9.6l-11.5,9.6c-3.8,1.9-3.8,7.6-1.9,13.4l3.8,3.8
		l5.8-3.8l5.7,9.6h-11.5v-3.8l-5.7-1.9l-5.7,5.7v3.8l-15.4-1.9c-5.7-1.9-7.7-5.7-5.7-9.6c5.7,1.9,9.6,0,7.7-5.7
		c0-5.8,1.9-7.7,7.7-7.7c-1.9-5.7-5.7-5.7-11.5-3.8c-5.8,1.9-9.6-1.9-9.6-7.7L1474.2,614.2L1474.2,614.2z"/>
	<path class="st2" d="M1349.7,746.4l7.7,5.7c1.9,1.9,3.8,1.9,5.7-3.8v-19.2c5.7,0,9.6-3.8,9.6-9.6c1.9-9.6,3.9-15.3,5.7-17.2
		l1.9-21.1c5.7,1.9,5.7,7.7,3.8,15.3c-3.8,7.7-1.9,13.4,5.7,15.4c1.9,5.7,1.9,9.6-3.8,13.4l-15.4,7.7c-1.9,15.3,1.9,26.8,9.6,32.6
		l-5.8,1.9l-3.8,5.7l7.7,5.7l-19.2-1.9c-7.7,1.9-13.4,0-15.4-5.7l-5.7,7.6l1.9,3.8l-1.9,1.9l-1.9-5.8v-5.7l7.7-13.4L1349.7,746.4
		L1349.7,746.4z"/>
	<text transform="matrix(0.976 0 0 1 146 966.9443)" class="st5 st6">Event</text>
	<text transform="matrix(0.9242 0 0 1 1579.0198 966.9443)" class="st5 st7">Team</text>
</g>
</svg>
